HIERARCHY
ROOT Hips
{
    OFFSET 0.000000 0.000000 0.000000
    CHANNELS 6 Xposition Yposition Zposition Zrotation Xrotation Yrotation
    JOINT Spine
    {
        OFFSET -0.000000 7.236184 0.000000
        CHANNELS 3 Zrotation Xrotation Yrotation
        JOINT Spine1
        {
            OFFSET -0.000000 20.420147 0.000000
            CHANNELS 3 Zrotation Xrotation Yrotation
            JOINT Neck
            {
                OFFSET -0.000000 20.336288 1.848754
                CHANNELS 3 Zrotation Xrotation Yrotation
                JOINT Head
                {
                    OFFSET -0.000000 12.354461 -1.764923
                    CHANNELS 3 Zrotation Xrotation Yrotation
                    End Site
                    {
                        OFFSET -0.000000 22.061537 0.000000
                    }
                }
            }
            JOINT LeftShoulder
            {
                OFFSET 3.573296 18.396038 -0.314103
                CHANNELS 3 Zrotation Xrotation Yrotation
                JOINT LeftArm
                {
                    OFFSET 10.880760 0.000000 0.000000
                    CHANNELS 3 Zrotation Xrotation Yrotation
                    JOINT LeftForeArm
                    {
                        OFFSET 27.185530 0.000000 0.000000
                        CHANNELS 3 Zrotation Xrotation Yrotation
                        JOINT LeftHand
                        {
                            OFFSET 27.825975 0.000000 0.000000
                            CHANNELS 3 Zrotation Xrotation Yrotation
                            End Site
                            {
                                OFFSET 13.236923 0.000000 0.000000
                            }
                        }
                    }
                }
            }
            JOINT RightShoulder
            {
                OFFSET -3.474926 18.396038 -0.314103
                CHANNELS 3 Zrotation Xrotation Yrotation
                JOINT RightArm
                {
                    OFFSET -10.880760 0.000000 0.000000
                    CHANNELS 3 Zrotation Xrotation Yrotation
                    JOINT RightForeArm
                    {
                        OFFSET -27.185530 0.000000 0.000000
                        CHANNELS 3 Zrotation Xrotation Yrotation
                        JOINT RightHand
                        {
                            OFFSET -27.825975 0.000000 0.000000
                            CHANNELS 3 Zrotation Xrotation Yrotation
                            End Site
                            {
                                OFFSET -13.236923 0.000000 0.000000
                            }
                        }
                    }
                }
            }
        }
    }
    JOINT LeftUpLeg
    {
        OFFSET 8.824615 0.000000 0.000000
        CHANNELS 3 Zrotation Xrotation Yrotation
        JOINT LeftLeg
        {
            OFFSET -0.000000 -35.111282 0.000000
            CHANNELS 3 Zrotation Xrotation Yrotation
            JOINT LeftFoot
            {
                OFFSET -0.000000 -42.324711 0.000000
                CHANNELS 3 Zrotation Xrotation Yrotation
                JOINT LeftToeBase
                {
                    OFFSET -0.000000 -5.735999 13.236923
                    CHANNELS 3 Zrotation Xrotation Yrotation
                    End Site
                    {
                        OFFSET -0.000000 0.000000 3.529846
                    }
                }
            }
        }
    }
    JOINT RightUpLeg
    {
        OFFSET -8.824615 0.000000 0.000000
        CHANNELS 3 Zrotation Xrotation Yrotation
        JOINT RightLeg
        {
            OFFSET -0.000000 -35.111282 0.000000
            CHANNELS 3 Zrotation Xrotation Yrotation
            JOINT RightFoot
            {
                OFFSET -0.000000 -42.324711 0.000000
                CHANNELS 3 Zrotation Xrotation Yrotation
                JOINT RightToeBase
                {
                    OFFSET -0.000000 -5.735999 13.236923
                    CHANNELS 3 Zrotation Xrotation Yrotation
                    End Site
                    {
                        OFFSET -0.000000 0.000000 3.529846
                    }
                }
            }
        }
    }
}
MOTION
Frames:    5
Frame Time:    0.008333
6.545532    81.611427    108.356094    0.439812    -15.746169    -171.102203    -2.530785    -11.186698    0.728284    0.554178    6.165204    0.946299    2.169344    6.167045    -4.175115    4.402990    -36.841778    -2.540233    -0.373675    15.590446    -0.466944    -52.348068    24.443232    -32.537914    2.125795    -4.421811    -9.084675    16.820608    -4.184913    0.464442    6.491540    17.995583    -6.266717    40.230381    44.322952    37.600925    -2.802441    -5.996678    20.377893    -12.640811    -5.252140    -2.206011    7.447785    -30.289444    -3.070092    0.772438    25.180037    3.712595    -11.572592    -8.255979    -14.667715    -0.090129    -0.104731    0.099924    -17.305733    -12.666596    -11.265349    2.118940    8.097157    -4.584228    13.320771    -4.558832    -10.137092    -0.956998    0.671480    1.034117    
6.376264    81.524147    108.344910    0.708629    -15.683691    -170.840714    -2.489005    -11.124310    0.771267    0.698802    6.151752    0.976193    2.205198    6.160134    -4.304007    4.713669    -37.104546    -2.525719    -0.293976    15.412530    -0.549154    -52.225952    23.875992    -32.255848    2.088453    -4.299234    -8.874374    16.626467    -4.083412    0.371830    6.484529    17.972013    -6.271143    40.146969    44.253033    37.408260    -2.828374    -6.015582    20.501326    -12.665176    -5.268262    -2.156589    7.432956    -30.716295    -3.271812    0.845273    25.927650    3.640138    -11.432143    -8.543830    -14.711000    -0.081888    -0.142399    0.090794    -17.208786    -12.562919    -11.263350    2.137069    8.160484    -4.702075    13.460625    -4.596511    -10.195552    -0.955105    0.662822    1.032084    
6.204947    81.436378    108.333275    0.978462    -15.619011    -170.579620    -2.448032    -11.060995    0.813086    0.846759    6.135859    1.004743    2.241678    6.152181    -4.431761    5.029418    -37.364323    -2.506465    -0.214582    15.234101    -0.633546    -52.093018    23.312403    -31.982906    2.051728    -4.175138    -8.661152    16.432896    -3.978861    0.286620    6.477337    17.949024    -6.276473    40.069923    44.177223    37.207470    -2.853564    -6.033932    20.625139    -12.691127    -5.284166    -2.105003    7.410161    -31.142687    -3.477193    0.925660    26.677965    3.566233    -11.292190    -8.833461    -14.755044    -0.075600    -0.178805    0.083827    -17.112249    -12.457971    -11.261984    2.156419    8.224152    -4.819513    13.602582    -4.632357    -10.252235    -0.952753    0.652532    1.029557    
6.032115    81.349052    108.321320    1.246150    -15.553532    -170.323410    -2.409520    -10.998477    0.851889    0.998344    6.116999    1.030592    2.279960    6.143371    -4.555689    5.347762    -37.615887    -2.481155    -0.135901    15.057665    -0.719929    -51.948788    22.769001    -31.723854    2.014912    -4.053324    -8.448410    16.244680    -3.874671    0.211940    6.470056    17.927540    -6.284426    40.004456    44.090569    36.998734    -2.877249    -6.050984    20.747583    -12.718842    -5.299096    -2.052526    7.377026    -31.563444    -3.684253    1.016083    27.422462    3.487482    -11.154284    -9.123361    -14.795719    -0.072772    -0.212508    0.080696    -17.018593    -12.353703    -11.258779    2.177341    8.287139    -4.936323    13.746657    -4.663736    -10.306119    -0.949745    0.638900    1.026326    
5.856112    81.262192    108.309158    1.511642    -15.488176    -170.073105    -2.374260    -10.937434    0.887009    1.154834    6.094091    1.052842    2.320415    6.133668    -4.675248    5.672100    -37.857296    -2.447841    -0.057134    14.883656    -0.809110    -51.792599    22.252028    -31.478840    1.976651    -3.934511    -8.236836    16.064205    -3.771528    0.148909    6.462763    17.907785    -6.296297    39.954479    43.987869    36.778900    -2.898847    -6.066049    20.868753    -12.748530    -5.312487    -1.998967    7.331053    -31.978302    -3.894871    1.118461    28.160410    3.402353    -11.018151    -9.414360    -14.829992    -0.073705    -0.242316    0.081735    -16.929941    -12.252093    -11.260228    2.199453    8.351347    -5.047621    13.894705    -4.688754    -10.354306    -0.945559    0.620599    1.021827    
